Coordinates
version=1
nRows=18
nColumns=63
inDegrees=yes

Units are S.I. units (second, meters, Newtons, ...)
If the header above contains a line with 'inDegrees', this indicates whether rotational values are in degrees (yes) or radians (no).

endheader
time	pelvis_tilt	pelvis_list	pelvis_rotation	pelvis_tx	pelvis_ty	pelvis_tz	hip_flexion_r	hip_adduction_r	hip_rotation_r	knee_angle_r	knee_angle_r_beta	ankle_angle_r	subtalar_angle_r	mtp_angle_r	hip_flexion_l	hip_adduction_l	hip_rotation_l	knee_angle_l	knee_angle_l_beta	ankle_angle_l	subtalar_angle_l	mtp_angle_l	L5_S1_Flex_Ext	L5_S1_Lat_Bending	L5_S1_axial_rotation	L4_L5_Flex_Ext	L4_L5_Lat_Bending	L4_L5_axial_rotation	L3_L4_Flex_Ext	L3_L4_Lat_Bending	L3_L4_axial_rotation	L2_L3_Flex_Ext	L2_L3_Lat_Bending	L2_L3_axial_rotation	L1_L2_Flex_Ext	L1_L2_Lat_Bending	L1_L2_axial_rotation	L1_T12_Flex_Ext	L1_T12_Lat_Bending	L1_T12_axial_rotation	Abs_r3	Abs_r2	Abs_r1	Abs_t1	Abs_t2	neck_flexion	neck_bending	neck_rotation	arm_flex_r	arm_add_r	arm_rot_r	elbow_flex_r	pro_sup_r	wrist_flex_r	wrist_dev_r	arm_flex_l	arm_add_l	arm_rot_l	elbow_flex_l	pro_sup_l	wrist_flex_l	wrist_dev_l
4.152542	-2.420505	-3.828128	97.279905	0.243292	0.956675	0.271430	1.194159	-3.068350	-20.157593	3.896656	0.068009	17.965581	16.270581	0.000000	6.321499	4.961477	3.927436	8.823207	0.153994	6.788143	-16.129605	0.000000	0.058157	-0.357382	-0.557757	0.108004	-0.475318	-0.592617	0.095547	-0.868939	-0.592617	0.066468	-0.868939	-0.488037	0.054005	-0.728774	-0.453177	0.033231	-0.553585	-0.418318	0.415412	-4.042778	-3.102076	0.000000	0.000000	10.880509	2.581617	-1.241368	7.147479	-9.492910	55.429997	52.656997	8.742578	-1.435469	8.568421	14.142156	-9.744754	59.924545	55.523813	72.054581	-3.812987	9.710029
4.169492	-2.370705	-3.856774	97.485604	0.242889	0.956580	0.271472	1.241155	-3.052314	-20.420191	3.988204	0.069607	18.057048	16.336403	0.000000	6.458716	4.936089	4.040870	9.026809	0.157548	6.793531	-16.168944	0.000000	0.052825	-0.351679	-0.597781	0.098102	-0.467733	-0.635142	0.086786	-0.855073	-0.635142	0.060374	-0.855073	-0.523058	0.049053	-0.717144	-0.485697	0.030184	-0.544751	-0.448336	0.377325	-3.978266	-3.324679	0.000000	0.000000	10.958987	2.659227	-1.143212	7.162643	-9.481763	55.428384	52.570756	8.651030	-1.443834	8.643940	14.118837	-9.682040	59.792453	55.425611	72.580242	-3.720770	9.714432
4.186441	-2.335936	-3.863547	97.685281	0.242611	0.956550	0.271287	1.259678	-3.046155	-20.719219	4.103031	0.071611	18.142847	16.405507	0.000000	6.557740	4.911480	4.141667	9.221838	0.160951	6.869906	-16.109132	0.000000	0.047983	-0.348495	-0.625707	0.089110	-0.463499	-0.664813	0.078832	-0.847332	-0.664813	0.054840	-0.847332	-0.547493	0.044557	-0.710652	-0.508387	0.027418	-0.539819	-0.469280	0.342740	-3.942250	-3.479993	0.000000	0.000000	11.025699	2.755020	-1.067940	7.110425	-9.428978	55.332343	52.451506	8.722468	-1.535836	8.747587	14.118289	-9.634210	59.784064	55.323989	73.218819	-3.654853	9.688821
4.203390	-2.311833	-3.834366	97.868283	0.242461	0.956612	0.270877	1.230782	-3.040616	-21.041343	4.226041	0.073758	18.203393	16.484287	0.000000	6.594013	4.883442	4.266019	9.390642	0.163898	6.966124	-16.048120	0.000000	0.041741	-0.346620	-0.643535	0.077517	-0.461005	-0.683756	0.068576	-0.842773	-0.683756	0.047705	-0.842773	-0.563093	0.038760	-0.706828	-0.522872	0.023851	-0.536915	-0.482651	0.298150	-3.921040	-3.579149	0.000000	0.000000	11.055272	2.868097	-0.967012	7.040820	-9.352352	55.255358	52.282097	8.929917	-1.661622	8.820491	14.122260	-9.602590	59.848721	55.223566	73.964579	-3.622376	9.634789
4.220339	-2.302029	-3.784463	98.037574	0.242442	0.956739	0.270252	1.168923	-3.039601	-21.364255	4.351842	0.075954	18.241175	16.545278	0.000000	6.586428	4.855760	4.369089	9.542033	0.166540	7.088216	-15.928861	0.000000	0.036145	-0.347220	-0.651497	0.067124	-0.461803	-0.692215	0.059382	-0.844231	-0.692215	0.041310	-0.844231	-0.570060	0.033564	-0.708051	-0.529341	0.020653	-0.537844	-0.488623	0.258177	-3.927821	-3.623429	0.000000	0.000000	11.040745	2.983420	-0.896366	6.927353	-9.233911	55.110945	52.067041	9.371409	-1.820748	8.928685	14.106131	-9.592109	59.937606	55.151679	74.849654	-3.627781	9.587300
4.237288	-2.296528	-3.714966	98.217748	0.242486	0.956926	0.269456	1.071854	-3.032825	-21.721633	4.472641	0.078062	18.259581	16.611410	0.000000	6.540214	4.828740	4.546843	9.678846	0.168928	7.186104	-15.878781	0.000000	0.030362	-0.348760	-0.656574	0.056385	-0.463850	-0.697609	0.049881	-0.847974	-0.697609	0.034700	-0.847974	-0.574502	0.028194	-0.711191	-0.533466	0.017349	-0.540229	-0.492430	0.216871	-3.945239	-3.651665	0.000000	0.000000	10.988267	3.085934	-0.857577	6.797658	-9.096379	54.967831	51.832215	9.816075	-2.003726	9.035852	14.054676	-9.596087	60.000618	55.113674	75.842075	-3.650737	9.558135
4.254237	-2.299188	-3.629214	98.361908	0.242651	0.957166	0.268496	0.944184	-3.021403	-22.016209	4.572046	0.079797	18.252406	16.643260	0.000000	6.445120	4.795901	4.663832	9.775467	0.170614	7.291990	-15.766480	0.000000	0.023820	-0.351555	-0.648822	0.044236	-0.467568	-0.689374	0.039134	-0.854771	-0.689374	0.027224	-0.854771	-0.567719	0.022119	-0.716891	-0.527168	0.013611	-0.544559	-0.486617	0.170144	-3.976863	-3.608554	0.000000	0.000000	10.914301	3.149848	-0.881700	6.626855	-8.937636	54.734452	51.586773	10.592313	-2.175806	9.150120	13.976833	-9.617126	60.072106	55.114707	76.835527	-3.753592	9.507218
4.271186	-2.303510	-3.530222	98.486020	0.242884	0.957442	0.267436	0.788396	-2.999394	-22.278867	4.643505	0.081044	18.225281	16.664219	0.000000	6.310610	4.757029	4.756690	9.835269	0.171658	7.394971	-15.626526	0.000000	0.015243	-0.354537	-0.634038	0.028307	-0.471534	-0.673665	0.025042	-0.862020	-0.673665	0.017421	-0.862020	-0.554783	0.014154	-0.722971	-0.515156	0.008710	-0.549177	-0.475528	0.108877	-4.010588	-3.526328	0.000000	0.000000	10.847794	3.172260	-0.963133	6.430652	-8.777473	54.446866	51.373864	11.378845	-2.343211	9.242374	13.869818	-9.653804	60.129911	55.161767	77.715127	-3.910870	9.443342
4.288136	-2.313730	-3.428014	98.616921	0.243136	0.957734	0.266317	0.613948	-2.972640	-22.520549	4.691084	0.081875	18.201473	16.661266	0.000000	6.138827	4.723176	4.898299	9.835345	0.171659	7.459355	-15.523624	0.000000	0.004991	-0.358522	-0.619288	0.009268	-0.476835	-0.657993	0.008199	-0.871711	-0.657993	0.005704	-0.871711	-0.541877	0.004634	-0.731099	-0.503171	0.002852	-0.555351	-0.464466	0.035647	-4.055675	-3.444292	0.000000	0.000000	10.808732	3.155157	-1.117574	6.209569	-8.614247	54.106006	51.205479	11.957653	-2.435785	9.303714	13.721119	-9.713740	60.149330	55.266786	78.491081	-4.137368	9.354089
4.305085	-2.325968	-3.339095	98.720106	0.243435	0.957996	0.265161	0.439527	-2.939361	-22.694780	4.701609	0.082059	18.172208	16.628768	0.000000	5.965888	4.690670	5.019373	9.810780	0.171230	7.537042	-15.407695	0.000000	-0.004161	-0.363012	-0.597831	-0.007728	-0.482807	-0.635195	-0.006837	-0.882628	-0.635195	-0.004756	-0.882628	-0.523102	-0.003864	-0.740255	-0.485738	-0.002378	-0.562306	-0.448373	-0.029724	-4.106469	-3.324957	0.000000	0.000000	10.806854	3.097158	-1.333831	5.959057	-8.464762	53.713378	51.115012	12.345849	-2.491083	9.292149	13.539506	-9.794170	60.160019	55.423765	79.082856	-4.441439	9.223683
4.322034	-2.346626	-3.259893	98.818722	0.243749	0.958231	0.263991	0.255796	-2.903875	-22.807301	4.671902	0.081540	18.153405	16.553753	0.000000	5.782865	4.665822	5.139543	9.746579	0.170110	7.636692	-15.244972	0.000000	-0.012618	-0.368828	-0.574561	-0.023434	-0.490542	-0.610471	-0.020731	-0.896769	-0.610471	-0.014422	-0.896769	-0.502741	-0.011717	-0.752115	-0.466830	-0.007210	-0.571315	-0.430920	-0.090132	-4.172261	-3.195534	0.000000	0.000000	10.830805	3.029259	-1.569131	5.677236	-8.326378	53.263229	51.104970	12.435777	-2.492037	9.228914	13.329709	-9.896055	60.146736	55.623858	79.451241	-4.737472	9.093456
4.338983	-2.376416	-3.194570	98.920251	0.244059	0.958434	0.262835	0.069341	-2.870085	-22.878985	4.607777	0.080421	18.145621	16.460167	0.000000	5.602400	4.654684	5.289884	9.652919	0.168475	7.750616	-15.084114	0.000000	-0.019145	-0.376260	-0.551558	-0.035555	-0.500426	-0.586030	-0.031454	-0.914840	-0.586030	-0.021881	-0.914840	-0.482613	-0.017778	-0.767270	-0.448141	-0.010940	-0.582827	-0.413668	-0.136754	-4.256334	-3.067600	0.000000	0.000000	10.861382	2.980390	-1.798775	5.362974	-8.191320	52.744819	51.154916	12.302920	-2.428061	9.143254	13.099487	-10.014181	60.105642	55.851958	79.645284	-4.985954	8.999376
4.355932	-2.409241	-3.131042	99.037288	0.244322	0.958621	0.261720	-0.136304	-2.829475	-22.924333	4.500824	0.078554	18.139364	16.345296	0.000000	5.423475	4.650452	5.460976	9.548679	0.166656	7.903357	-14.891501	0.000000	-0.024868	-0.384001	-0.533631	-0.046183	-0.510721	-0.566983	-0.040856	-0.933660	-0.566983	-0.028422	-0.933660	-0.466927	-0.023093	-0.783055	-0.433575	-0.014210	-0.594818	-0.400223	-0.177631	-4.343897	-2.967893	0.000000	0.000000	10.871786	2.958159	-1.971905	5.051274	-8.081156	52.259524	51.269801	11.848410	-2.341672	8.995777	12.862096	-10.137735	60.026466	56.082505	79.620174	-5.098190	8.993557
4.372881	-2.446320	-3.076205	99.160839	0.244554	0.958788	0.260670	-0.345800	-2.788032	-22.948674	4.362920	0.076147	18.131786	16.232519	0.000000	5.257388	4.655197	5.643130	9.438449	0.164732	8.079156	-14.695188	0.000000	-0.028419	-0.392590	-0.518200	-0.052778	-0.522144	-0.550588	-0.046690	-0.954542	-0.550588	-0.032481	-0.954542	-0.453425	-0.026390	-0.800569	-0.421038	-0.016239	-0.608121	-0.388650	-0.202998	-4.441052	-2.882074	0.000000	0.000000	10.849159	2.972582	-2.113379	4.734755	-7.977039	51.771768	51.410158	11.240925	-2.235323	8.837025	12.637932	-10.263736	59.944243	56.302992	79.458948	-5.103918	9.076014
4.389831	-2.478784	-3.028225	99.301192	0.244716	0.958937	0.259726	-0.559324	-2.737799	-22.974288	4.192308	0.073170	18.112097	16.132971	0.000000	5.114376	4.663652	5.857365	9.340102	0.163016	8.279612	-14.516155	0.000000	-0.030067	-0.400329	-0.509645	-0.055837	-0.532438	-0.541498	-0.049397	-0.973360	-0.541498	-0.034363	-0.973360	-0.445939	-0.027920	-0.816351	-0.414087	-0.017180	-0.620110	-0.382234	-0.214764	-4.528604	-2.834493	0.000000	0.000000	10.783651	3.012882	-2.191266	4.433518	-7.886866	51.315602	51.559310	10.557712	-2.126785	8.700662	12.424209	-10.378889	59.824806	56.498084	79.201194	-4.956441	9.261532
4.406780	-2.503272	-2.983723	99.448270	0.244805	0.959075	0.258907	-0.774705	-2.676948	-22.963778	3.992356	0.069680	18.067788	16.002735	0.000000	4.993736	4.669441	6.061650	9.257920	0.161581	8.514765	-14.315640	0.000000	-0.030965	-0.406340	-0.507048	-0.057505	-0.540432	-0.538739	-0.050872	-0.987975	-0.538739	-0.035390	-0.987975	-0.443667	-0.028754	-0.828608	-0.411977	-0.017693	-0.629420	-0.380286	-0.221180	-4.596598	-2.820050	0.000000	0.000000	10.693091	3.060828	-2.218823	4.166117	-7.816230	50.926331	51.703473	9.887186	-2.041542	8.583741	12.234448	-10.479846	59.693869	56.663307	78.850940	-4.692187	9.508517
4.423729	-2.511034	-2.944161	99.602885	0.244794	0.959198	0.258239	-0.984423	-2.600874	-22.946491	3.770227	0.065803	17.988582	15.861583	0.000000	4.903332	4.667956	6.278573	9.200755	0.160583	8.772302	-14.133215	0.000000	-0.031419	-0.409273	-0.512776	-0.058348	-0.544333	-0.544825	-0.051618	-0.995106	-0.544825	-0.035909	-0.995106	-0.448679	-0.029176	-0.834589	-0.416631	-0.017953	-0.633964	-0.384582	-0.224423	-4.629777	-2.851907	0.000000	0.000000	10.592978	3.105583	-2.199439	3.943696	-7.769683	50.615529	51.831892	9.308663	-1.962324	8.505650	12.064797	-10.559663	59.539460	56.798212	78.431436	-4.336270	9.797739
4.440678	-2.504613	-2.908698	99.750890	0.244700	0.959310	0.257734	-1.177735	-2.517784	-22.928439	3.544956	0.061871	17.878653	15.725262	0.000000	4.840469	4.660283	6.488219	9.166523	0.159986	9.039469	-13.967334	0.000000	-0.032291	-0.409332	-0.524874	-0.059968	-0.544412	-0.557679	-0.053052	-0.995250	-0.557679	-0.036906	-0.995250	-0.459265	-0.029986	-0.834710	-0.426460	-0.018451	-0.634056	-0.393656	-0.230654	-4.630447	-2.919192	0.000000	0.000000	10.498112	3.130331	-2.162389	3.770202	-7.744591	50.380231	51.935058	8.864544	-1.871908	8.469564	11.921832	-10.619402	59.381395	56.904882	77.961117	-3.941187	10.087220
